<?xml version="1.0" standalone="no"?>
<!DOCTYPE svg PUBLIC "-//W3C//DTD SVG 20010904//EN"
 "http://www.w3.org/TR/2001/REC-SVG-20010904/DTD/svg10.dtd">
<svg version="1.0" xmlns="http://www.w3.org/2000/svg"
 width="113.000000pt" height="113.000000pt" viewBox="0 0 113.000000 113.000000"
 preserveAspectRatio="xMidYMid meet">
<metadata>
Created by potrace 1.14, written by Peter Selinger 2001-2017
</metadata>
<g transform="translate(0.000000,113.000000) scale(0.100000,-0.100000)"
fill="#000000" stroke="none">
<path d="M716 1023 c-14 -14 -3 -36 37 -76 l43 -43 -1 -130 c0 -142 -6 -158
-58 -168 l-25 -4 -4 111 c-2 93 -6 117 -23 139 -11 15 -25 28 -32 28 -6 0 -13
4 -15 10 -1 5 -24 13 -50 16 -44 6 -48 5 -48 -15 0 -11 9 -30 19 -40 35 -35
41 -58 39 -155 0 -53 2 -99 6 -103 3 -3 6 -80 6 -169 0 -90 4 -165 9 -168 10
-7 66 43 57 51 -3 4 1 14 9 23 10 11 15 44 17 105 l3 90 35 1 c19 1 40 -1 45
-5 7 -3 12 -60 13 -141 3 -207 8 -319 14 -326 3 -3 16 5 29 18 22 21 30 39 33
78 0 8 5 18 11 22 5 4 11 58 13 120 1 62 5 136 8 163 3 28 7 142 9 255 l3 205
-28 32 c-16 17 -31 29 -34 26 -3 -4 -6 -1 -6 5 0 7 -3 11 -7 10 -5 -1 -23 6
-40 15 -18 10 -33 15 -33 13 0 -3 -11 -1 -24 4 -13 5 -27 6 -30 3z"/>
<path d="M383 813 c-22 -8 -14 -31 20 -65 25 -26 33 -43 34 -76 2 -41 2 -42
-30 -42 -18 0 -38 -5 -44 -11 -11 -11 -13 -10 -80 64 -11 11 -31 17 -59 17
-56 0 -65 -27 -20 -67 32 -29 35 -37 41 -140 2 -34 8 -70 14 -82 6 -11 11 -31
11 -45 0 -35 17 -42 48 -19 31 22 70 35 76 24 9 -14 119 -10 147 5 29 15 32
41 8 70 -13 16 -20 74 -11 89 4 6 7 48 8 95 1 100 -19 148 -69 169 -35 15 -75
20 -94 14z m72 -299 c1 -60 -9 -74 -56 -72 -47 2 -56 14 -51 68 4 40 5 41 38
38 18 -1 36 1 40 5 16 16 29 -1 29 -39z"/>
</g>
</svg>
